// logo.svg
<svg xmlns="http://www.w3.org/2000/svg" width="16" height="16" fill="currentColor" className="bi bi-patch-check" viewBox="0 0 16 16">
  <path d="M10.8 14.1l1.1-1.1a.5.5 0 0 1 .7-.7l-.9-.9a.5.5 0 0 1 .7-.7l.9-.9a.5.5 0 0 1 .7.7l-.9.9a.5.5 0 0 1-.7.7l.9.9a.5.5 0 0 1-.7.7l-1.1-1.1a.5.5 0 0 0-.7.7z"/>
  <path d="M10 4a6 6 0 1 1 0 12 6 6 0 0 1 0-12zM2.2 6.2L1.6 1.5a.5.5 0 0 0-.8 0L.8 2.2a.5.5 0 0 0 0 .8l1.1 1.1a.5.5 0 0 0 .8 0L2.2 6.2zm10.9 1.9a.5.5 0 0 0-.8 0L11.2 2.2a.5.5 0 0 0 0-.8l1.1-1.1a.5.5 0 0 0 .8 0L13.1 6.2a.5.5 0 0 0 0 .8z"/>
</svg>
